<svg xmlns="http://www.w3.org/2000/svg" width="231.31" height="71.159" viewBox="0 0 231.31 71.159">
  <g id="LOGO" transform="translate(-9.258 -9.623)">
    <path id="Path_1" data-name="Path 1" d="M31.548,60.686V9.623L9.258,47.366Z" transform="translate(0 0)" fill="#ffe644"/>
    <path id="Path_2" data-name="Path 2" d="M24.779,9.623l22.29,37.743-22.29,13.32Z" transform="translate(6.769 0)" fill="#ec7463"/>
    <path id="Path_3" data-name="Path 3" d="M9.258,37.9l22.29,13.32V68.45" transform="translate(0 12.332)" fill="#009ecb"/>
    <path id="Path_4" data-name="Path 4" d="M47.069,37.9,24.779,51.22V68.45" transform="translate(6.769 12.332)" fill="#4d68ae"/>
    <path id="Path_5" data-name="Path 5" d="M31.548,26.63,9.258,39.949l22.29,13.32Z" transform="translate(0 7.417)" fill="#57a759"/>
    <path id="Path_6" data-name="Path 6" d="M24.779,26.63l22.29,13.32-22.29,13.32Z" transform="translate(6.769 7.417)" fill="#8e5298"/>
    <g id="Group_1" data-name="Group 1" transform="translate(68.897 23.809)">
      <path id="Path_7" data-name="Path 7" d="M50.786,30.1a7.976,7.976,0,0,1,.877-3.8,6.291,6.291,0,0,1,2.456-2.561,7.209,7.209,0,0,1,3.646-.9,6.823,6.823,0,0,1,3.554.929,6.464,6.464,0,0,1,2.441,2.611,8.14,8.14,0,0,1,.88,3.826v1.087H54.481a2.917,2.917,0,0,0,.982,2.094,3.456,3.456,0,0,0,2.378.8,4.1,4.1,0,0,0,1.913-.452,7.332,7.332,0,0,0,1.913-1.562l2.3,2.352a8.664,8.664,0,0,1-2.739,2.054,7.782,7.782,0,0,1-3.388.738,7.394,7.394,0,0,1-3.7-.9,6.251,6.251,0,0,1-2.482-2.546A7.844,7.844,0,0,1,50.786,30.1Zm10.132-1.5a2.7,2.7,0,0,0-1-1.887,3.549,3.549,0,0,0-4.33-.026A3.113,3.113,0,0,0,54.534,28.6Z" transform="translate(-50.786 -18.048)" fill="#26293b"/>
      <path id="Path_8" data-name="Path 8" d="M70.622,27.471v5.506a1.347,1.347,0,0,0,.323,1.007,1.52,1.52,0,0,0,1.073.312h3.128v3.567H71.682a5.213,5.213,0,0,1-3.516-1.073,3.83,3.83,0,0,1-1.241-3.063V27.471H63.565V24.162h3.361V20.671h3.7v3.491H76v3.309Z" transform="translate(-45.213 -18.991)" fill="#26293b"/>
      <path id="Path_9" data-name="Path 9" d="M75.715,19.5h3.7v6.437h.052a5.444,5.444,0,0,1,6.618-.931,4.873,4.873,0,0,1,1.81,2.044,6.848,6.848,0,0,1,.646,3.05v8.272h-3.7V30.592a3.1,3.1,0,0,0-.7-2.147,2.448,2.448,0,0,0-1.913-.776,2.768,2.768,0,0,0-2.068.764,2.876,2.876,0,0,0-.75,2.107v7.833h-3.7Z" transform="translate(-39.914 -19.501)" fill="#26293b"/>
      <path id="Path_10" data-name="Path 10" d="M87.5,30.1a7.96,7.96,0,0,1,.879-3.8,6.282,6.282,0,0,1,2.456-2.561,7.2,7.2,0,0,1,3.645-.9,6.819,6.819,0,0,1,3.554.929,6.477,6.477,0,0,1,2.443,2.611,8.157,8.157,0,0,1,.879,3.826v1.087H91.2a2.907,2.907,0,0,0,.982,2.094,3.452,3.452,0,0,0,2.377.8,4.1,4.1,0,0,0,1.913-.452,7.312,7.312,0,0,0,1.914-1.562l2.3,2.352a8.67,8.67,0,0,1-2.74,2.054,7.773,7.773,0,0,1-3.388.738,7.384,7.384,0,0,1-3.7-.9,6.242,6.242,0,0,1-2.482-2.546A7.828,7.828,0,0,1,87.5,30.1Zm10.133-1.5a2.7,2.7,0,0,0-1-1.887,3.549,3.549,0,0,0-4.33-.026,3.114,3.114,0,0,0-1.06,1.913Z" transform="translate(-34.772 -18.048)" fill="#26293b"/>
      <path id="Path_11" data-name="Path 11" d="M100.9,23.22h3.541v1.265h.052a5.18,5.18,0,0,1,3.981-1.653,4.733,4.733,0,0,1,3.076,1.047,5.5,5.5,0,0,1,1.81,2.856l-3.464,1.137a2.37,2.37,0,0,0-2.456-1.682,2.683,2.683,0,0,0-2.118.816,3.239,3.239,0,0,0-.725,2.235V36.92h-3.7Z" transform="translate(-28.932 -18.048)" fill="#26293b"/>
      <path id="Path_12" data-name="Path 12" d="M111.984,30.1a7.977,7.977,0,0,1,.879-3.8,6.291,6.291,0,0,1,2.456-2.561,7.208,7.208,0,0,1,3.645-.9,6.816,6.816,0,0,1,3.554.929,6.471,6.471,0,0,1,2.444,2.611,8.156,8.156,0,0,1,.877,3.826v1.087H115.682a2.905,2.905,0,0,0,.981,2.094,3.453,3.453,0,0,0,2.378.8,4.1,4.1,0,0,0,1.913-.452,7.333,7.333,0,0,0,1.913-1.562l2.3,2.352a8.638,8.638,0,0,1-2.74,2.054,7.771,7.771,0,0,1-3.386.738,7.39,7.39,0,0,1-3.7-.9,6.251,6.251,0,0,1-2.482-2.546A7.844,7.844,0,0,1,111.984,30.1Zm10.133-1.5a2.7,2.7,0,0,0-1-1.887,3.549,3.549,0,0,0-4.33-.026,3.128,3.128,0,0,0-1.06,1.913Z" transform="translate(-24.096 -18.048)" fill="#26293b"/>
      <path id="Path_13" data-name="Path 13" d="M124.765,32.148V23.1h3.7V31.3a2.2,2.2,0,0,0,2.482,2.507,2.348,2.348,0,0,0,1.772-.685,2.524,2.524,0,0,0,.659-1.822V23.1h3.7V36.8h-3.542V35.586h-.052a3.961,3.961,0,0,1-1.564,1.163,5.635,5.635,0,0,1-5.828-.892A5.032,5.032,0,0,1,124.765,32.148Z" transform="translate(-18.522 -17.931)" fill="#26293b"/>
      <path id="Path_14" data-name="Path 14" d="M136.194,23.181h3.259V24.37h.052a3.029,3.029,0,0,1,1.123-1.073,3.1,3.1,0,0,1,1.514-.376,2.986,2.986,0,0,1,2.609,1.525h.052a3.261,3.261,0,0,1,2.845-1.525,3.074,3.074,0,0,1,2.428,1.061,4.029,4.029,0,0,1,.932,2.765V36.882H147.6V27.395a1.226,1.226,0,0,0-.31-.9,1.194,1.194,0,0,0-.879-.312,1.13,1.13,0,0,0-.867.35,1.338,1.338,0,0,0-.322.944v9.409h-3.231V27.395a1.274,1.274,0,0,0-.3-.892,1.085,1.085,0,0,0-.84-.325,1.2,1.2,0,0,0-.9.35,1.3,1.3,0,0,0-.337.944v9.409h-3.412Z" transform="translate(-13.538 -18.009)" fill="#26293b"/>
      <path id="Path_15" data-name="Path 15" d="M54.765,48.27H51.146V44.961h3.619V42.944a3.591,3.591,0,0,1,1.2-2.856,4.895,4.895,0,0,1,3.322-1.047h3.981v3.283h-3.54a1.13,1.13,0,0,0-.829.283,1.089,1.089,0,0,0-.284.8v1.551H64.1V48.27H58.615v8.867h-3.85Z" transform="translate(-50.629 -10.979)" fill="#26293b"/>
      <path id="Path_16" data-name="Path 16" d="M63.025,49.069a7.845,7.845,0,0,1,.879-3.761,6.36,6.36,0,0,1,2.469-2.559,7.7,7.7,0,0,1,7.29,0,6.36,6.36,0,0,1,2.469,2.559,8.487,8.487,0,0,1,0,7.522,6.348,6.348,0,0,1-2.469,2.558,7.7,7.7,0,0,1-7.29,0A6.348,6.348,0,0,1,63.9,52.83,7.849,7.849,0,0,1,63.025,49.069Zm10.288,0a4.249,4.249,0,0,0-.866-2.832A3.032,3.032,0,0,0,70,45.216a3,3,0,0,0-2.417,1.021,4.249,4.249,0,0,0-.866,2.832,4.243,4.243,0,0,0,.866,2.831,3.372,3.372,0,0,0,4.847-.013A4.208,4.208,0,0,0,73.313,49.069Z" transform="translate(-45.448 -9.762)" fill="#26293b"/>
      <path id="Path_17" data-name="Path 17" d="M75.8,51.147V42.1h3.7V50.3A2.2,2.2,0,0,0,81.983,52.8a2.343,2.343,0,0,0,1.771-.685,2.518,2.518,0,0,0,.659-1.822V42.1h3.7V55.8H84.568V54.587h-.052a3.985,3.985,0,0,1-1.564,1.162,4.826,4.826,0,0,1-7.148-4.6Z" transform="translate(-39.875 -9.645)" fill="#26293b"/>
      <path id="Path_18" data-name="Path 18" d="M87.955,42.219h3.7v1.293h.05a5.979,5.979,0,0,1,1.785-1.254,5.269,5.269,0,0,1,2.171-.427,5.175,5.175,0,0,1,2.506.632,4.776,4.776,0,0,1,1.887,1.94,6.614,6.614,0,0,1,.725,3.244v8.272h-3.7V48.138a3.2,3.2,0,0,0-.672-2.12,2.391,2.391,0,0,0-1.939-.8,2.764,2.764,0,0,0-2.068.764,2.876,2.876,0,0,0-.75,2.107v7.833h-3.7Z" transform="translate(-34.576 -9.762)" fill="#26293b"/>
      <path id="Path_19" data-name="Path 19" d="M99.546,50.521a8.429,8.429,0,0,1,.8-3.722,6.216,6.216,0,0,1,2.249-2.585,5.939,5.939,0,0,1,3.283-.931,5.107,5.107,0,0,1,3.645,1.241h.052V38.5h3.7V57.372h-3.411V56.183h-.053a5.288,5.288,0,0,1-3.981,1.575,5.954,5.954,0,0,1-3.244-.9,6.082,6.082,0,0,1-2.236-2.545A8.53,8.53,0,0,1,99.546,50.521Zm10.03.877V49.617a2.721,2.721,0,0,0-.414-1.449,3.111,3.111,0,0,0-1.15-1.084,3.292,3.292,0,0,0-1.642-.415,2.777,2.777,0,0,0-2.288,1.048,5.046,5.046,0,0,0,.013,5.6,2.743,2.743,0,0,0,2.249,1.061,3.244,3.244,0,0,0,2.315-.866A2.793,2.793,0,0,0,109.576,51.4Z" transform="translate(-29.521 -11.215)" fill="#26293b"/>
      <path id="Path_20" data-name="Path 20" d="M112.609,52.249a3.614,3.614,0,0,1,1.305-2.973,9.447,9.447,0,0,1,4.357-1.551,7.54,7.54,0,0,0,2.183-.582.969.969,0,0,0,.582-.866,1.116,1.116,0,0,0-.569-.982,2.869,2.869,0,0,0-1.551-.362,2.923,2.923,0,0,0-1.926.672,3.043,3.043,0,0,0-1.047,1.784l-3.438-.776a5.329,5.329,0,0,1,1.163-2.482,6.16,6.16,0,0,1,2.275-1.693,7.251,7.251,0,0,1,2.973-.607A5.929,5.929,0,0,1,123.13,43.3a5.127,5.127,0,0,1,1.577,3.931v8.686H121.4V54.394h-.052a3.96,3.96,0,0,1-1.667,1.409,5.615,5.615,0,0,1-2.417.5,5.4,5.4,0,0,1-2.4-.516,3.983,3.983,0,0,1-1.656-1.448A3.81,3.81,0,0,1,112.609,52.249Zm8.582-1.422V49.276h-.05a1.611,1.611,0,0,1-.775.62,9.348,9.348,0,0,1-1.708.465,6.616,6.616,0,0,0-1.99.658,1.1,1.1,0,0,0-.543.971,1.012,1.012,0,0,0,.478.9,2.549,2.549,0,0,0,1.383.31,3.919,3.919,0,0,0,1.577-.325A2.983,2.983,0,0,0,120.752,52,1.867,1.867,0,0,0,121.192,50.827Z" transform="translate(-23.869 -9.762)" fill="#26293b"/>
      <path id="Path_21" data-name="Path 21" d="M131.822,46.47v5.506a1.343,1.343,0,0,0,.322,1.007,1.515,1.515,0,0,0,1.073.312h3.128v3.567h-3.464a5.207,5.207,0,0,1-3.514-1.073,3.831,3.831,0,0,1-1.242-3.063V46.47h-3.359V43.161h3.359v-3.49h3.7v3.49H137.2V46.47Z" transform="translate(-18.522 -10.704)" fill="#26293b"/>
      <path id="Path_22" data-name="Path 22" d="M150.112,54.174V57.56H136.645V54.174h4.886V47.246H136.9V43.859h8.325V54.174Zm-8.66-16.1h3.8v3.643h-3.8Z" transform="translate(-13.341 -11.403)" fill="#26293b"/>
      <path id="Path_23" data-name="Path 23" d="M148.705,49.069a7.861,7.861,0,0,1,.877-3.761,6.373,6.373,0,0,1,2.47-2.559,7.7,7.7,0,0,1,7.29,0,6.36,6.36,0,0,1,2.469,2.559,8.5,8.5,0,0,1,0,7.522,6.347,6.347,0,0,1-2.469,2.558,7.7,7.7,0,0,1-7.29,0,6.361,6.361,0,0,1-2.47-2.558A7.865,7.865,0,0,1,148.705,49.069Zm10.288,0a4.249,4.249,0,0,0-.866-2.832,3.035,3.035,0,0,0-2.444-1.021,3,3,0,0,0-2.416,1.021,4.242,4.242,0,0,0-.866,2.832,4.235,4.235,0,0,0,.866,2.831,3.372,3.372,0,0,0,4.847-.013A4.208,4.208,0,0,0,158.993,49.069Z" transform="translate(-8.081 -9.762)" fill="#26293b"/>
      <path id="Path_24" data-name="Path 24" d="M161.4,42.219h3.7v1.293h.052a5.956,5.956,0,0,1,1.784-1.254,5.274,5.274,0,0,1,2.171-.427,5.176,5.176,0,0,1,2.507.632,4.776,4.776,0,0,1,1.887,1.94,6.614,6.614,0,0,1,.724,3.244v8.272h-3.7V48.138a3.19,3.19,0,0,0-.672-2.12,2.389,2.389,0,0,0-1.939-.8,2.768,2.768,0,0,0-2.068.764,2.876,2.876,0,0,0-.75,2.107v7.833h-3.7Z" transform="translate(-2.546 -9.762)" fill="#26293b"/>
    </g>
  </g>
</svg>
