<svg id="Layer_1" data-name="Layer 1" xmlns="http://www.w3.org/2000/svg" xmlns:xlink="http://www.w3.org/1999/xlink" viewBox="0 0 1066.98 1183.35"><defs><style>.cls-1,.cls-3{fill:#fff;}.cls-2,.cls-4{fill:none;}.cls-3{isolation:isolate;opacity:0.29;}.cls-4{stroke:#fff;stroke-miterlimit:10;stroke-width:1.19px;}.cls-5{fill:url(#radial-gradient);}.cls-6{fill:url(#radial-gradient-2);}</style><radialGradient id="radial-gradient" cx="352.46" cy="200.41" r="26.46" gradientTransform="matrix(0.99, 0.12, 0.12, -0.99, 139.31, 339.99)" gradientUnits="userSpaceOnUse"><stop offset="0" stop-color="#fff"/><stop offset="1" stop-color="#fff" stop-opacity="0"/></radialGradient><radialGradient id="radial-gradient-2" cx="259.12" cy="23.24" r="26.46" xlink:href="#radial-gradient"/></defs><g id="Layer_3" data-name="Layer 3"><path class="cls-1" d="M593.42,731.37,511,721c4.24-33.79,26.13-58.88,48.9-56S597.66,697.58,593.42,731.37Z"/><circle class="cls-1" cx="563.26" cy="636.74" r="21.44"/><line class="cls-2" x1="593.42" y1="731.37" x2="510.96" y2="721.04"/><circle class="cls-3" cx="559.41" cy="670.88" r="97.5"/><path class="cls-1" d="M619.61,491.28,569.83,485c2.56-20.4,15.78-35.54,29.52-33.82S622.17,470.88,619.61,491.28Z"/><circle class="cls-1" cx="601.39" cy="434.15" r="12.94"/><line class="cls-2" x1="619.61" y1="491.28" x2="569.83" y2="485.04"/><circle class="cls-3" cx="599.07" cy="454.76" r="58.86"/><path class="cls-1" d="M191.56,579.41,156.61,575c1.79-14.32,11.07-24.95,20.72-23.74S193.35,565.09,191.56,579.41Z"/><circle class="cls-1" cx="178.77" cy="539.31" r="9.08"/><line class="cls-2" x1="191.56" y1="579.41" x2="156.61" y2="575.03"/><circle class="cls-3" cx="177.14" cy="553.78" r="41.32"/><path class="cls-1" d="M235.38,265.59l-26.65-3.34c1.37-10.92,8.44-19,15.8-18.11S236.75,254.67,235.38,265.59Z"/><circle class="cls-1" cx="225.64" cy="235" r="6.93" transform="translate(-35.59 429.67) rotate(-82.86)"/><line class="cls-2" x1="235.38" y1="265.59" x2="208.74" y2="262.25"/><circle class="cls-3" cx="224.39" cy="246.04" r="31.51"/><path class="cls-1" d="M803.81,595.23l-32.17-4c1.65-13.19,10.19-23,19.08-21.87S805.47,582,803.81,595.23Z"/><circle class="cls-1" cx="792.04" cy="558.3" r="8.36" transform="translate(139.59 1274.78) rotate(-82.86)"/><line class="cls-2" x1="803.81" y1="595.23" x2="771.64" y2="591.2"/><circle class="cls-3" cx="790.54" cy="571.62" r="38.05"/><path class="cls-1" d="M1040.65,233.83l-34.19-4.29c1.75-14,10.83-24.41,20.27-23.23S1042.4,219.82,1040.65,233.83Z"/><circle class="cls-1" cx="1028.14" cy="194.59" r="8.89" transform="translate(707.22 1190.56) rotate(-82.86)"/><line class="cls-2" x1="1040.65" y1="233.83" x2="1006.46" y2="229.54"/><circle class="cls-3" cx="1026.55" cy="208.75" r="40.43"/><path class="cls-1" d="M412.58,379.05l-49.77-6.23c2.55-20.4,15.77-35.55,29.51-33.82S415.14,358.66,412.58,379.05Z"/><circle class="cls-1" cx="394.37" cy="321.93" r="12.94"/><line class="cls-2" x1="412.58" y1="379.05" x2="362.8" y2="372.82"/><circle class="cls-3" cx="392.05" cy="342.54" r="58.86"/><path class="cls-1" d="M959.94,951.3l-67.88-8.51c3.49-27.82,21.51-48.46,40.25-46.12S963.43,923.49,959.94,951.3Z"/><circle class="cls-1" cx="935.12" cy="873.4" r="17.65" transform="translate(-47.78 1692.66) rotate(-82.86)"/><line class="cls-2" x1="959.94" y1="951.3" x2="892.07" y2="942.79"/><circle class="cls-3" cx="931.95" cy="901.51" r="80.26"/><path class="cls-1" d="M725.65,955.13l-49.77-6.23c2.55-20.4,15.77-35.55,29.51-33.82S728.21,934.73,725.65,955.13Z"/><circle class="cls-1" cx="707.44" cy="898" r="12.94"/><line class="cls-2" x1="725.65" y1="955.13" x2="675.87" y2="948.9"/><circle class="cls-3" cx="705.12" cy="918.62" r="58.86"/><path class="cls-1" d="M273.7,1038.92l-97.55-12.22c5-40,30.91-69.64,57.85-66.27S278.71,999,273.7,1038.92Z"/><circle class="cls-1" cx="238.01" cy="926.98" r="25.36" transform="translate(-711.36 1047.88) rotate(-82.86)"/><line class="cls-2" x1="273.7" y1="1038.92" x2="176.15" y2="1026.7"/><circle class="cls-3" cx="233.46" cy="967.36" r="115.34"/><path class="cls-1" d="M140.77,790.07l-34.7-4.34c1.78-14.22,11-24.77,20.58-23.57S142.55,775.85,140.77,790.07Z"/><circle class="cls-1" cx="128.07" cy="750.26" r="9.02" transform="translate(-632.29 784.05) rotate(-82.86)"/><line class="cls-2" x1="140.77" y1="790.07" x2="106.07" y2="785.73"/><circle class="cls-3" cx="126.45" cy="764.62" r="41.02"/><path class="cls-1" d="M506.58,873.14l-28.66-3.59c1.48-11.75,9.09-20.46,17-19.47S508.05,861.4,506.58,873.14Z"/><circle class="cls-1" cx="496.1" cy="840.24" r="7.45"/><line class="cls-2" x1="506.58" y1="873.14" x2="477.92" y2="869.55"/><circle class="cls-3" cx="494.76" cy="852.11" r="33.89"/><path class="cls-1" d="M545.77,1126.31l-62.34-7.82c3.2-25.55,19.75-44.51,37-42.35S549,1100.75,545.77,1126.31Z"/><circle class="cls-1" cx="522.96" cy="1054.75" r="16.21"/><line class="cls-2" x1="545.77" y1="1126.31" x2="483.43" y2="1118.49"/><circle class="cls-3" cx="520.06" cy="1080.57" r="73.72"/><path class="cls-1" d="M924.54,1161l-49.77-6.23c2.55-20.4,15.77-35.55,29.51-33.83S927.1,1140.6,924.54,1161Z"/><circle class="cls-1" cx="906.33" cy="1103.87" r="12.94"/><line class="cls-2" x1="924.54" y1="1161" x2="874.76" y2="1154.76"/><circle class="cls-3" cx="904.01" cy="1124.49" r="58.86"/><path class="cls-1" d="M348.52,785.05l-49.77-6.24c2.56-20.4,15.77-35.54,29.52-33.82S351.08,764.65,348.52,785.05Z"/><circle class="cls-1" cx="330.31" cy="727.92" r="12.94"/><line class="cls-2" x1="348.52" y1="785.05" x2="298.74" y2="778.81"/><circle class="cls-3" cx="327.99" cy="748.53" r="58.86"/><path class="cls-1" d="M392,562.36,364.83,559c1.39-11.13,8.6-19.38,16.09-18.44S393.37,551.24,392,562.36Z"/><circle class="cls-1" cx="382.04" cy="531.2" r="7.06" transform="translate(-192.54 844.23) rotate(-82.86)"/><line class="cls-2" x1="391.98" y1="562.36" x2="364.83" y2="558.96"/><circle class="cls-3" cx="380.78" cy="542.44" r="32.1"/><path class="cls-1" d="M79.4,465.52l-49.78-6.23c2.56-20.4,15.77-35.55,29.52-33.82S82,445.13,79.4,465.52Z"/><circle class="cls-1" cx="61.18" cy="408.39" r="12.94"/><line class="cls-2" x1="79.4" y1="465.52" x2="29.62" y2="459.29"/><circle class="cls-3" cx="58.86" cy="429.01" r="58.86"/><path class="cls-1" d="M176.11,95.38l-49.78-6.24c2.56-20.4,15.78-35.54,29.52-33.82S178.67,75,176.11,95.38Z"/><circle class="cls-1" cx="157.89" cy="38.25" r="12.94" transform="translate(100.31 190.16) rotate(-82.86)"/><line class="cls-2" x1="176.11" y1="95.38" x2="126.33" y2="89.14"/><circle class="cls-3" cx="155.58" cy="58.86" r="58.86"/><path class="cls-1" d="M834.46,354.63l-49.78-6.24c2.56-20.4,15.77-35.54,29.52-33.82S837,334.23,834.46,354.63Z"/><circle class="cls-1" cx="816.24" cy="297.5" r="12.94" transform="translate(419.56 1070.41) rotate(-82.86)"/><line class="cls-2" x1="834.46" y1="354.63" x2="784.67" y2="348.39"/><circle class="cls-3" cx="813.92" cy="318.11" r="58.86"/><path class="cls-1" d="M1015.33,637.33l-49.78-6.24c2.56-20.4,15.77-35.54,29.52-33.82S1017.88,616.93,1015.33,637.33Z"/><circle class="cls-1" cx="997.11" cy="580.2" r="12.94"/><line class="cls-2" x1="1015.33" y1="637.33" x2="965.55" y2="631.09"/><circle class="cls-3" cx="994.79" cy="600.81" r="58.86"/><path class="cls-1" d="M527.28,208.53l-31.68-4c1.63-13,10-22.62,18.78-21.53S528.9,195.55,527.28,208.53Z"/><circle class="cls-1" cx="515.68" cy="172.17" r="8.23" transform="translate(280.73 662.45) rotate(-82.86)"/><line class="cls-2" x1="527.28" y1="208.53" x2="495.6" y2="204.56"/><circle class="cls-3" cx="514.21" cy="185.29" r="37.45"/><path class="cls-1" d="M853.92,783.65l-28.65-3.59c1.47-11.74,9.08-20.46,17-19.47S855.4,771.91,853.92,783.65Z"/><circle class="cls-1" cx="843.44" cy="750.76" r="7.45"/><line class="cls-2" x1="853.92" y1="783.65" x2="825.26" y2="780.06"/><circle class="cls-3" cx="842.1" cy="762.63" r="33.89"/><path class="cls-1" d="M839.11,183.26l-56.82-7.12c2.91-23.29,18-40.57,33.69-38.6S842,160,839.11,183.26Z"/><circle class="cls-1" cx="818.32" cy="118.05" r="14.77" transform="translate(599.43 915.34) rotate(-82.86)"/><line class="cls-2" x1="839.11" y1="183.26" x2="782.29" y2="176.14"/><circle class="cls-3" cx="815.67" cy="141.58" r="67.18"/><polygon class="cls-4" points="559.41 670.88 233.46 967.36 494.76 852.11 842.36 762.96 932.21 901.84 705.38 918.95 842.36 762.96 328.69 740.53 495.02 852.45 126.2 764.29 233.2 967.03 328.69 740.53 177.14 553.77 58.97 425.73 126.2 764.29 177.14 553.77 380.52 542.11 598.82 454.43 392.16 339.26 58.97 425.73 380.52 542.11 392.16 339.26 224.13 245.7 155.69 55.58 513.95 184.96 815.86 137.71 1026.29 208.41 994.53 600.48 931.69 901.17 903.75 1124.15 519.8 1080.24 233.2 967.03 704.86 918.29 903.75 1124.15 931.69 901.17 519.8 1080.24 494.5 851.78 790.28 571.29 994.53 600.48 841.84 762.29 790.28 571.29 598.82 454.43 813.66 317.78 790.28 571.29 1026.29 208.41 813.66 317.78 815.86 137.71 598.82 454.43 513.95 184.96 398.28 343.02 815.86 137.71 994.53 600.48 513.95 184.96 224.13 245.7 58.97 425.73 398.28 343.02 155.69 55.58 328.69 740.53 380.52 542.11 790.28 571.29 598.82 454.43 177.14 553.77 392.16 339.26 559.41 670.88"/><circle class="cls-5" cx="513.95" cy="184.96" r="26.46"/><circle class="cls-6" cx="399.31" cy="349.14" r="26.46"/></g></svg>