<svg id="Layer_1" data-name="Layer 1" xmlns="http://www.w3.org/2000/svg" viewBox="0 0 500 117"><defs><style>.cls-1{fill:#231f20;}.cls-2{fill:#010101;}.cls-3,.cls-4{fill:#fff;}.cls-4{fill-rule:evenodd;}</style></defs><path class="cls-1" d="M162.11,71H149V36.88h13a19.13,19.13,0,0,1,9.1,2A14.22,14.22,0,0,1,177,44.79a18.86,18.86,0,0,1,2.09,9.15A18.85,18.85,0,0,1,177,63.09a14.24,14.24,0,0,1-5.9,5.86A18.84,18.84,0,0,1,162.11,71Zm-3.86-7.86h3.53a10.44,10.44,0,0,0,4.32-.81,5.61,5.61,0,0,0,2.73-2.82,13.29,13.29,0,0,0,.94-5.56,13.24,13.24,0,0,0-1-5.56,5.61,5.61,0,0,0-2.8-2.82,11.19,11.19,0,0,0-4.51-.81h-3.26Z"/><path class="cls-1" d="M195.75,71.46a14.91,14.91,0,0,1-7.05-1.57,10.86,10.86,0,0,1-4.55-4.53,14.79,14.79,0,0,1-1.59-7.09,14.36,14.36,0,0,1,1.6-6.93,11.44,11.44,0,0,1,4.51-4.61,13.76,13.76,0,0,1,6.88-1.65,14.57,14.57,0,0,1,5.25.9,11.08,11.08,0,0,1,4,2.6,11.65,11.65,0,0,1,2.57,4.14,15.71,15.71,0,0,1,.9,5.48v2.14H185.43V55.27h14.39a3.7,3.7,0,0,0-.56-1.94A3.77,3.77,0,0,0,197.81,52a4.44,4.44,0,0,0-2.06-.47,4.5,4.5,0,0,0-2,.47,4,4,0,0,0-1.5,1.31,3.64,3.64,0,0,0-.59,2v5.46a4.5,4.5,0,0,0,.52,2.2,3.73,3.73,0,0,0,1.48,1.52A4.72,4.72,0,0,0,196,65a5.29,5.29,0,0,0,1.74-.27,3.86,3.86,0,0,0,1.36-.77,3,3,0,0,0,.83-1.23h8.4a9.55,9.55,0,0,1-2.05,4.62,10.55,10.55,0,0,1-4.27,3A16.61,16.61,0,0,1,195.75,71.46Z"/><path class="cls-1" d="M237.13,45.41,228.53,71H217.87l-8.59-25.58h9.66l4.13,16.92h.27l4.13-16.92Z"/><path class="cls-1" d="M251.18,71.46a14.91,14.91,0,0,1-7.05-1.57,10.81,10.81,0,0,1-4.55-4.53A14.79,14.79,0,0,1,238,58.27a14.47,14.47,0,0,1,1.59-6.93,11.46,11.46,0,0,1,4.52-4.61A13.74,13.74,0,0,1,251,45.08a14.61,14.61,0,0,1,5.25.9,11.17,11.17,0,0,1,4,2.6,11.63,11.63,0,0,1,2.56,4.14,15.71,15.71,0,0,1,.9,5.48v2.14H240.85V55.27h14.39a3.53,3.53,0,0,0-.56-1.94A3.7,3.7,0,0,0,253.23,52a4.42,4.42,0,0,0-2-.47,4.54,4.54,0,0,0-2.05.47,4,4,0,0,0-1.49,1.31,3.64,3.64,0,0,0-.59,2v5.46a4.5,4.5,0,0,0,.52,2.2,3.67,3.67,0,0,0,1.48,1.52,4.7,4.7,0,0,0,2.33.55,5.38,5.38,0,0,0,1.74-.27,3.86,3.86,0,0,0,1.36-.77,3.16,3.16,0,0,0,.83-1.23h8.39a9.46,9.46,0,0,1-2.05,4.62,10.48,10.48,0,0,1-4.27,3A16.59,16.59,0,0,1,251.18,71.46Z"/><path class="cls-1" d="M276.63,36.88V71h-9.2V36.88Z"/><path class="cls-1" d="M293.61,71.46a14.37,14.37,0,0,1-7.13-1.66,11.25,11.25,0,0,1-4.54-4.63,14.4,14.4,0,0,1-1.58-6.9,14.4,14.4,0,0,1,1.58-6.9,11.19,11.19,0,0,1,4.54-4.63,16.14,16.14,0,0,1,14.26,0,11.21,11.21,0,0,1,4.55,4.63,14.51,14.51,0,0,1,1.58,6.9,14.51,14.51,0,0,1-1.58,6.9,11.27,11.27,0,0,1-4.55,4.63A14.32,14.32,0,0,1,293.61,71.46Zm.07-6.79a2.86,2.86,0,0,0,2-.79A5,5,0,0,0,297,61.65a12.9,12.9,0,0,0,0-6.9,5.12,5.12,0,0,0-1.32-2.23,2.85,2.85,0,0,0-2-.78,3.1,3.1,0,0,0-2.12.78,5,5,0,0,0-1.34,2.23,12.9,12.9,0,0,0,0,6.9,4.85,4.85,0,0,0,1.34,2.23A3.11,3.11,0,0,0,293.68,64.67Z"/><path class="cls-1" d="M310.6,80.59V45.41h9.13v4.47h.2a7.69,7.69,0,0,1,1.47-2.4,7.06,7.06,0,0,1,2.39-1.74,7.92,7.92,0,0,1,3.33-.66A9.38,9.38,0,0,1,332,46.43a9.76,9.76,0,0,1,3.72,4.24,16.86,16.86,0,0,1,1.45,7.53,17.18,17.18,0,0,1-1.38,7.35,9.85,9.85,0,0,1-3.66,4.34,9.25,9.25,0,0,1-5,1.44,8.31,8.31,0,0,1-3.21-.59,7.26,7.26,0,0,1-2.4-1.62,7.4,7.4,0,0,1-1.52-2.32h-.13V80.59Zm9-22.39a9.45,9.45,0,0,0,.5,3.23,4.57,4.57,0,0,0,1.4,2.09,3.28,3.28,0,0,0,2.17.74,3.35,3.35,0,0,0,2.16-.72,4.51,4.51,0,0,0,1.36-2.08,11.28,11.28,0,0,0,0-6.51,4.54,4.54,0,0,0-1.36-2.09,3.62,3.62,0,0,0-4.33,0,4.52,4.52,0,0,0-1.4,2.09A9.49,9.49,0,0,0,319.59,58.2Z"/><path class="cls-1" d="M353.24,71.46a14.91,14.91,0,0,1-7.05-1.57,10.81,10.81,0,0,1-4.55-4.53,14.79,14.79,0,0,1-1.59-7.09,14.47,14.47,0,0,1,1.59-6.93,11.46,11.46,0,0,1,4.52-4.61A13.74,13.74,0,0,1,353,45.08a14.61,14.61,0,0,1,5.25.9,11.17,11.17,0,0,1,4,2.6,11.63,11.63,0,0,1,2.56,4.14,15.71,15.71,0,0,1,.9,5.48v2.14H342.91V55.27H357.3a3.53,3.53,0,0,0-.56-1.94A3.7,3.7,0,0,0,355.29,52a4.42,4.42,0,0,0-2.05-.47,4.54,4.54,0,0,0-2.05.47,4,4,0,0,0-1.49,1.31,3.64,3.64,0,0,0-.59,2v5.46a4.5,4.5,0,0,0,.52,2.2,3.67,3.67,0,0,0,1.48,1.52,4.7,4.7,0,0,0,2.33.55,5.38,5.38,0,0,0,1.74-.27,3.86,3.86,0,0,0,1.36-.77,3.16,3.16,0,0,0,.83-1.23h8.39a9.46,9.46,0,0,1-2.05,4.62,10.48,10.48,0,0,1-4.27,3A16.59,16.59,0,0,1,353.24,71.46Z"/><path class="cls-1" d="M369.49,71V45.41h8.93v4.86h.27a7.23,7.23,0,0,1,2.22-3.94,5.47,5.47,0,0,1,3.57-1.25,7.95,7.95,0,0,1,2.33.35v7.84a8.61,8.61,0,0,0-1.68-.35,14.38,14.38,0,0,0-1.71-.11,4.92,4.92,0,0,0-2.43.6,4.52,4.52,0,0,0-1.69,1.7,5.13,5.13,0,0,0-.61,2.56V71Z"/><path class="cls-1" d="M412.13,71H399V36.88h13a19.13,19.13,0,0,1,9.1,2A14.22,14.22,0,0,1,427,44.79a18.86,18.86,0,0,1,2.09,9.15A18.85,18.85,0,0,1,427,63.09a14.24,14.24,0,0,1-5.9,5.86A18.84,18.84,0,0,1,412.13,71Zm-3.87-7.86h3.54a10.44,10.44,0,0,0,4.32-.81,5.61,5.61,0,0,0,2.73-2.82,13.29,13.29,0,0,0,.94-5.56,13.07,13.07,0,0,0-1-5.56A5.56,5.56,0,0,0,416,45.56a11.19,11.19,0,0,0-4.51-.81h-3.27Z"/><path class="cls-1" d="M440.11,71h-10l11.26-34.11H454L465.29,71h-10l-7.46-24.71h-.27Zm-1.86-13.45H457v6.93H438.25Z"/><path class="cls-1" d="M500,53.94a19.25,19.25,0,0,1-2.21,9.6,14.78,14.78,0,0,1-6,5.91,18.56,18.56,0,0,1-16.82,0,14.91,14.91,0,0,1-6-5.93,19.21,19.21,0,0,1-2.21-9.57,19.25,19.25,0,0,1,2.21-9.6,14.76,14.76,0,0,1,6-5.92,18.68,18.68,0,0,1,16.82,0,14.81,14.81,0,0,1,6,5.92A19.25,19.25,0,0,1,500,53.94Zm-9.53,0a14.48,14.48,0,0,0-.8-5.17,6.62,6.62,0,0,0-12.51,0,14.46,14.46,0,0,0-.81,5.17,14.46,14.46,0,0,0,.81,5.17,6.69,6.69,0,0,0,2.38,3.2,7.43,7.43,0,0,0,7.75,0,6.69,6.69,0,0,0,2.38-3.2A14.48,14.48,0,0,0,490.47,53.94Z"/><path class="cls-2" d="M58.5,0h0A58.5,58.5,0,0,1,117,58.5h0A58.5,58.5,0,0,1,58.5,117h0A58.5,58.5,0,0,1,0,58.5H0A58.5,58.5,0,0,1,58.5,0Z"/><rect class="cls-3" x="44.17" y="76.64" width="25.16" height="6.44"/><path class="cls-4" d="M7.9,35.69v41H22.23a20.48,20.48,0,1,0,0-40.95Zm8.77,8.77v23.4h5.56a11.7,11.7,0,0,0,0-23.4Z"/><path class="cls-4" d="M75.76,35.69v41H90.09a20.48,20.48,0,1,0,0-40.95Zm8.78,8.77v23.4h5.55a11.7,11.7,0,1,0,0-23.4Z"/></svg>