<?xml version="1.0" encoding="utf-8"?>
<!-- Generator: Adobe Illustrator 26.0.2, SVG Export Plug-In . SVG Version: 6.00 Build 0)  -->
<svg version="1.1" id="Layer_1" xmlns="http://www.w3.org/2000/svg" xmlns:xlink="http://www.w3.org/1999/xlink" x="0px" y="0px"
	 viewBox="0 0 1024.9 1051.7" style="enable-background:new 0 0 1024.9 1051.7;" xml:space="preserve">
<style type="text/css">
	.st0{fill:url(#SVGID_1_);}
	.st1{fill:url(#SVGID_00000093868503004234200670000005692299572083819693_);}
	.st2{fill:url(#SVGID_00000065760571173213080540000012715936591223213720_);}
	.st3{fill:url(#SVGID_00000034802195669428910470000005700579094890592936_);}
	.st4{fill:url(#SVGID_00000008856292059715960380000017960402694104621957_);}
	.st5{fill:url(#SVGID_00000155835607401541270370000009305069391297697672_);}
</style>
<g>
	<linearGradient id="SVGID_1_" gradientUnits="userSpaceOnUse" x1="123.7706" y1="641.8412" x2="372.1216" y2="641.8412">
		<stop  offset="0" style="stop-color:#F1F173"/>
		<stop  offset="0.3697" style="stop-color:#81FF83"/>
	</linearGradient>
	<rect x="188.5" y="617" class="st0" width="39.8" height="49.6"/>
	
		<linearGradient id="SVGID_00000114039389535712246150000014468364458463249598_" gradientUnits="userSpaceOnUse" x1="123.7706" y1="527.9741" x2="372.1216" y2="527.9741">
		<stop  offset="0" style="stop-color:#F1F173"/>
		<stop  offset="0.3697" style="stop-color:#81FF83"/>
	</linearGradient>
	<path style="fill:url(#SVGID_00000114039389535712246150000014468364458463249598_);" d="M329.4,420.4
		c-32.6-28.7-70.4-31.1-113-31.1h-85.8v277.3h27.7V546.8h30.2v46.8h39.8v-46.8h30.2v118.1c4.2-0.5,8.2-1.1,12.1-1.8
		c-0.5-0.5-1-1-1.5-1.5c-2.6-3.4-3.8-7.7-3.8-11.9c-0.9-8.5,5.5-16,14-16.8c0.4,0,1.1,0,1.5,0c4.3-0.2,8.5,1.5,11.3,4.9
		c3.7,5.6,4.4,12.5,2.3,18.7c16.3-6.2,30.1-15.4,42.4-28.1c25.3-26.6,38.7-61.5,38.7-101.1C375.5,483.8,359.6,447,329.4,420.4z"/>
</g>
<linearGradient id="SVGID_00000106109268514847664740000003631681591777414322_" gradientUnits="userSpaceOnUse" x1="374.2619" y1="525.8538" x2="648.6071" y2="525.8538">
	<stop  offset="0" style="stop-color:#EE7495"/>
	<stop  offset="1" style="stop-color:#F5BD98"/>
</linearGradient>
<path style="fill:url(#SVGID_00000106109268514847664740000003631681591777414322_);" d="M648.6,666.6L511.5,385.1L374.3,666.6H450
	v-119h91.5v23h-61.7v0v24.1h48.5V617h-48.5v26.4h61.7v23.2H648.6z M564.7,632.8c0.4,0,1.1,0,1.5,0c4.3-0.2,8.5,1.5,11.3,4.9
	c4.7,7,4.7,16.2,0,23.4c-2.8,3.6-7,5.7-11.7,5.5c-4.5,0.2-8.5-1.7-11.3-5.1c-2.6-3.4-3.8-7.7-3.8-11.9
	C549.9,641.1,556.2,633.6,564.7,632.8z"/>
<g>
	
		<linearGradient id="SVGID_00000008838284993533553640000003957883168110256530_" gradientUnits="userSpaceOnUse" x1="639.4879" y1="643.1183" x2="894.4379" y2="643.1183">
		<stop  offset="0" style="stop-color:#5CD0FA"/>
		<stop  offset="1" style="stop-color:#83F2D4"/>
	</linearGradient>
	<path style="fill:url(#SVGID_00000008838284993533553640000003957883168110256530_);" d="M765.2,619.6h-21.7l-0.6,44.2
		c9.3,1.9,19.3,2.8,30,2.8c4,0,7.9-0.2,11.7-0.5L765.2,619.6z"/>
	
		<linearGradient id="SVGID_00000057852064382059749860000002151836182651213487_" gradientUnits="userSpaceOnUse" x1="639.4879" y1="583.9499" x2="894.4379" y2="583.9499">
		<stop  offset="0" style="stop-color:#5CD0FA"/>
		<stop  offset="1" style="stop-color:#83F2D4"/>
	</linearGradient>
	<path style="fill:url(#SVGID_00000057852064382059749860000002151836182651213487_);" d="M777.6,596.8c4.7-3,7.7-8.1,7.4-13.6
		c-0.2-5.1-3-9.6-7.2-12.1c-6.2-2.3-12.8-3-19.4-2.3h-15.7v30.4h0.2h16.4C765.5,599.8,771.8,599.2,777.6,596.8z"/>
	
		<linearGradient id="SVGID_00000141427876467659573650000009010658910138280107_" gradientUnits="userSpaceOnUse" x1="639.4879" y1="524.8339" x2="894.4379" y2="524.8339">
		<stop  offset="0" style="stop-color:#5CD0FA"/>
		<stop  offset="1" style="stop-color:#83F2D4"/>
	</linearGradient>
	<path style="fill:url(#SVGID_00000141427876467659573650000009010658910138280107_);" d="M864.8,430.4
		c-22.1-28.1-51.3-41.1-91.9-41.1c-39.8,0-72.4,14.5-94.1,42.4c-19.4,24.3-30,58.3-30,96c0,36.6,10.9,70.9,30.4,96.8
		c9.5,12.4,20.7,22,33.8,28.9V547.7h53.8c11.3-1.1,22.6,1.1,32.8,6c10.2,6.4,16.4,17.7,16.4,29.8c-0.2,14-9.2,26.4-22.3,30.6
		l21,46.3c3.5-1.1,6.9-2.5,10.2-3.9c-0.8-2.2-1.2-4.5-1.2-6.8c-0.9-8.5,5.5-16,14-16.8c0.4,0,1.1,0,1.5,0c4.3-0.2,8.5,1.5,11.3,4.9
		c0.4,0.6,0.8,1.3,1.1,2c6.2-5.4,11.9-11.5,17-18.4c20.2-27.9,27.5-66.6,27.5-93.6C896.1,492.1,884.2,454.9,864.8,430.4z"/>
</g>
</svg>
