<svg id="_2_color" data-name="2 color" xmlns="http://www.w3.org/2000/svg" viewBox="0 0 994.05 680.4"><defs><style>.cls-1{fill:#00afb8;}.cls-2{fill:#fff;}</style></defs><path class="cls-1" d="M303.63,146.61S270.4,93.73,202.91,45.34C141.4,1.23,52.07-12.69,19.58,62-9.69,129.21,45.85,171.89,70.94,195.76c10.07,9.57,53.82,54,74.84,111.07C167.54,365.91,158,459.93,198,525.21c20.14,32.9,65.47,68,112.75,81.09,75.95,21,102.06,0,108.39,3.52s37.19,61.47,172.49,61.47c140,0,191.1-135,208.2-216.11,7-33.23,109.43-167,135.18-192.65,71.21-70.82,53.8-134.12,6.33-152.31-74-28.39-206.7,91.68-206.7,91.68s4.85-44.71-44.11-60.83c-64.88-21.36-95.91,4.81-95.91,4.81s4.13-31.44-37-48.32c-52.54-21.56-79.39,4.22-79.39,4.22s1.95-24.6-31-28.75c-56.53-7.12-98.46,20.83-126.82,48.26C302.28,138.79,303.63,146.61,303.63,146.61Z"/><path class="cls-2" d="M53.08,123.4c47.27,43.73,74.9,58,124.74,163.37,36.19,76.52,31.63,126,48.66,192.15,30.86,119.87,90.38,26.46,90.38,26.46s69.23-93.16,39-214.77c-19-76.35-80-67.41-80-67.41C249.32,160.69,224.11,109.82,181.39,73,74.28-19.2,15.74,88.86,53.08,123.4Z"/><path class="cls-2" d="M334.75,171.93s35.34,85.45,36.72,165.31c2.4,138.49-36.12,172.46-45.54,211.7-4.63,19.27,22.8,58.16,66.31,43.91,35.51-11.62,38-163.59,49.85-164.17,16.22-.79-3.56,139.65-1.58,165,2,23,24.57,25.85,36.13,14,16.93-9.49,41.76-152.86,43.78-181.45,3.36-47.53-26.19-60.26-26.19-60.26s58.36-23.61,76.83-131.47c11.6-67.78-1.59-94.16-18.47-105.23-45.84-30.09-90.72-4.75-90.72-4.75S457.65,97,440.24,94.39c-22.81-3.44-61.49,9.81-88.09,38.3S334.75,171.93,334.75,171.93Z"/><path class="cls-2" d="M594.79,172.65C590,184.59,497.47,593.1,499.85,614.47s54.06,43,99.16,25.57,47.69-72.75,39.72-95.49c-16-45.59-63.47-38.73-63.47-38.73L583,469.91c14.24,11.07,28.14,15.87,41.86,9,18.78-9.39,38.87-79.19,21.48-107.45-8.73-14.19-33.73-13.69-33.73-13.69l16.2-71.15s67-6.3,82.06-54.57C724,190,699.5,169.82,678.13,161.91,640.26,147.88,599.54,160.71,594.79,172.65Z"/><path class="cls-2" d="M666.39,298.53c.27-6.66,57.63-50.48,65.28-44.31,12.68,10.22-22.94,103.71-5.54,108.82s40.29-130,51.71-151.22c6.58-12.25,114.45-79.32,135.81-79.13,36.23.31,50.19,50.93,9.49,92.25C871.71,277.16,772,420.77,721.39,520.06c-60.14,117.89-69.63,48-69.63,21.36S665.75,314.82,666.39,298.53Z"/><path class="cls-1" d="M262.48,299.31l25.61,136.3s39.93-22.5,31-87.24C310.75,288.34,262.48,299.31,262.48,299.31Z"/><path class="cls-1" d="M452.66,185.65,447.19,323.3s77.45-30.68,77.45-105.48C524.64,163.23,452.66,185.65,452.66,185.65Z"/></svg>