<svg width="695" height="200" viewBox="0 0 695 200" fill="none" xmlns="http://www.w3.org/2000/svg">
<path fill-rule="evenodd" clip-rule="evenodd" d="M100.719 200C45.6796 200.211 0.750534 155.116 0.999073 99.7001C1.24968 44.9177 45.9597 0.0134886 101.373 0.343605C155.993 0.669749 200.854 45.4328 200.427 101.015C200.008 155.555 155.601 200.177 100.719 200Z" fill="#0090FF"/>
<path fill-rule="evenodd" clip-rule="evenodd" d="M113.105 92.1038C121.8 93.3343 130.299 94.5343 139.061 95.7743C139.798 93.134 140.425 90.8829 141.143 88.3093C132.132 86.9739 123.532 85.6996 114.298 84.3317C117.403 73.3279 120.086 62.8068 123.44 52.5012C124.545 49.1093 127.015 45.9253 129.531 43.2907C132.833 39.8377 137.401 40.6027 140.198 44.3972C141.37 45.9863 142.473 47.667 143.877 49.0272C145.67 50.7614 148.312 51.6046 150.113 49.9162C151.296 48.8078 151.258 46.2 151.368 44.2388C151.412 43.4509 150.484 42.5238 149.842 41.7969C146.716 38.2524 142.492 36.9971 138.032 36.8101C128.081 36.3923 120.941 41.4726 115.334 49.1512C109.779 56.7612 107.342 65.7084 104.69 74.5508C103.917 77.1319 103.254 79.7474 102.476 82.5804C92.7886 81.1763 83.4952 79.8295 73.9314 78.4464C73.5923 81.0313 73.276 83.4561 72.9388 86.0315C82.4074 87.4909 91.4664 88.8855 100.828 90.3277C99.5747 95.616 98.4068 100.551 97.2066 105.614C88.0238 104.329 79.3173 103.113 70.5517 101.885C70.1802 104.72 69.9001 106.862 69.5686 109.384C78.3723 110.731 86.8597 112.028 95.4043 113.335C95.4043 114.3 95.5091 114.861 95.3872 115.371C92.6609 127.006 90.1252 138.693 87.0674 150.238C85.6062 155.744 83.2552 161.059 78.6847 164.928C74.9221 168.112 70.7879 167.579 67.9588 163.629C66.6804 161.849 65.6135 159.735 63.9256 158.487C62.6929 157.573 59.9495 157.024 59.0446 157.757C57.7034 158.844 56.7317 161.25 56.846 163.016C56.9432 164.582 58.4483 166.414 59.8295 167.482C64.4838 171.071 69.9611 171.591 75.5108 170.498C84.806 168.665 91.3616 162.858 95.4253 154.645C98.6183 148.189 101.009 141.295 103.269 134.433C105.315 128.219 106.704 121.788 108.437 115.233C117.567 116.559 126.515 117.858 135.649 119.184C136.403 116.574 137.083 114.213 137.817 111.67C128.26 110.264 119.142 108.919 109.946 107.564C111.051 102.159 112.034 97.3463 113.105 92.1038Z" fill="white"/>
<path d="M271.193 143.51V104.46H314.767V91.6467H271.193V67.9725H317.452V55.0371H255.691V143.51H271.193ZM342.038 69.6809V55.0371H327.513V69.6809H342.038ZM342.038 143.51V77.8571H327.513V143.51H342.038ZM372.897 143.51V55.0371H358.373V143.51H372.897ZM418.709 145.097C435.552 145.097 445.561 134.358 448.49 123.863H434.21C431.647 130.087 425.788 133.016 418.098 133.016C409.798 133.016 401.255 127.036 400.278 114.833H449.223C450.565 92.867 437.872 76.3927 417.732 76.3927C399.18 76.3927 385.509 90.4264 385.509 110.196C385.509 129.111 397.593 145.097 418.709 145.097ZM434.454 104.216H400.278C401.621 91.8908 410.897 87.7417 417.732 87.7417C426.276 87.7417 434.088 93.9653 434.454 104.216ZM490.579 145.097C504.616 145.097 518.164 136.432 521.093 121.056H506.935C504.982 129.843 498.025 133.016 490.823 133.016C482.279 133.016 473.979 126.304 473.979 110.684C473.979 95.1856 482.035 88.4739 491.189 88.4739C499.123 88.4739 505.104 93.3552 506.447 100.311H520.605C518.042 85.7892 505.592 76.3927 491.189 76.3927C471.538 76.3927 458.966 91.2806 458.966 110.806C458.966 130.331 471.538 145.097 490.579 145.097ZM561.937 145.097C577.926 145.097 594.282 134.602 594.282 110.806C594.282 87.1315 577.926 76.3927 561.937 76.3927C545.948 76.3927 529.592 87.1315 529.592 110.806C529.592 134.602 545.948 145.097 561.937 145.097ZM561.937 133.26C552.661 133.26 544.605 126.06 544.605 110.806C544.605 95.6738 552.661 88.2298 561.937 88.2298C571.213 88.2298 579.269 95.6738 579.269 110.806C579.269 126.06 571.213 133.26 561.937 133.26ZM621.76 69.6809V55.0371H607.236V69.6809H621.76ZM621.76 143.51V77.8571H607.236V143.51H621.76ZM652.62 143.51V108.609C652.62 96.772 656.648 88.2298 667.877 88.2298C679.106 88.2298 680.327 97.0161 680.327 105.802V143.51H694.852V102.263C694.852 86.6434 688.383 76.3927 672.515 76.3927C663.239 76.3927 656.404 80.1757 652.62 87.0095V77.8571H638.095V143.51H652.62Z" fill="black"/>
</svg>
