<?xml version="1.0" encoding="utf-8"?>
<!-- Generator: Adobe Illustrator 26.0.2, SVG Export Plug-In . SVG Version: 6.00 Build 0)  -->
<svg version="1.1" id="Layer_1" xmlns="http://www.w3.org/2000/svg" xmlns:xlink="http://www.w3.org/1999/xlink" x="0px" y="0px"
	 viewBox="0 0 381.55 180.5" style="enable-background:new 0 0 381.55 180.5;" xml:space="preserve">
<style type="text/css">
	.st0{fill:none;stroke:#231F20;stroke-linecap:round;stroke-linejoin:round;stroke-miterlimit:10;}
	.st1{fill:#00501E;}
</style>
<g>
	<path class="st1" d="M43.92,136.59V43.92h11.12v82.61h48.39v10.06H43.92z"/>
	<path class="st1" d="M114.72,136.59V43.92h57.06v10.06h-45.94v30.98h37.23v10.06h-37.23v31.51h46.6v10.06H114.72z"/>
	<path class="st1" d="M183.73,136.59V43.92h23.58l32.3,85.65h3.72V43.92h10.99v92.67h-23.58L198.57,50.8h-3.85v85.79H183.73z"/>
	<path class="st1" d="M300.92,138.44c-6.71,0-12.71-1.19-18-3.57c-5.3-2.38-9.47-5.98-12.51-10.79c-3.04-4.81-4.57-10.83-4.57-18.07
		v-2.78h10.99v2.78c0,7.68,2.25,13.39,6.75,17.14c4.5,3.75,10.28,5.63,17.34,5.63c7.24,0,12.75-1.63,16.55-4.9
		c3.79-3.26,5.69-7.37,5.69-12.31c0-3.44-0.86-6.18-2.58-8.21c-1.72-2.03-4.13-3.68-7.22-4.96c-3.09-1.28-6.71-2.4-10.86-3.38
		l-6.88-1.72c-5.38-1.41-10.15-3.13-14.3-5.16c-4.15-2.03-7.39-4.7-9.73-8.01c-2.34-3.31-3.51-7.57-3.51-12.77
		c0-5.21,1.3-9.71,3.91-13.5c2.6-3.79,6.27-6.71,10.99-8.74c4.72-2.03,10.17-3.05,16.35-3.05c6.27,0,11.89,1.08,16.88,3.24
		c4.99,2.16,8.91,5.34,11.78,9.53c2.87,4.19,4.3,9.47,4.3,15.82v5.56h-10.99v-5.56c0-4.5-0.95-8.12-2.85-10.86
		c-1.9-2.73-4.5-4.77-7.81-6.09c-3.31-1.32-7.08-1.99-11.32-1.99c-6.09,0-10.99,1.35-14.69,4.04c-3.71,2.69-5.56,6.51-5.56,11.45
		c0,3.27,0.79,5.91,2.38,7.94c1.59,2.03,3.84,3.69,6.75,4.96c2.91,1.28,6.4,2.41,10.46,3.38l6.88,1.72
		c5.38,1.15,10.21,2.71,14.5,4.7c4.28,1.99,7.7,4.68,10.26,8.08c2.56,3.4,3.84,7.83,3.84,13.3c0,5.47-1.37,10.24-4.1,14.3
		c-2.74,4.06-6.6,7.22-11.58,9.47C313.48,137.31,307.63,138.44,300.92,138.44z"/>
</g>
</svg>
