<svg width="182" height="43" viewBox="0 0 182 43" fill="none" xmlns="http://www.w3.org/2000/svg">
<path d="M48.1667 22.0187V32.8712C48.1628 33.548 47.9833 34.2122 47.6458 34.7988C47.3083 35.3854 46.8244 35.8744 46.2413 36.218L36.8403 41.633C36.258 41.9801 35.5928 42.1633 34.9149 42.1633C34.2371 42.1633 33.5718 41.9801 32.9896 41.633L23.5885 36.218C23.0054 35.8744 22.5215 35.3854 22.184 34.7988C21.8466 34.2122 21.6671 33.548 21.6632 32.8712V29.8253L26.4765 27.0313V32.326L34.8999 37.2145L43.3232 32.326V22.5714L34.8999 17.6829L15.1652 29.1146C14.5775 29.4457 13.9144 29.6197 13.2398 29.6197C12.5653 29.6197 11.9022 29.4457 11.3145 29.1146L1.9134 23.677C1.3393 23.3282 0.864703 22.8374 0.535303 22.2518C0.206003 21.6663 0.0331032 21.0058 0.0332032 20.334V9.48142C0.0371032 8.80462 0.216603 8.14052 0.554103 7.55382C0.891503 6.96722 1.3755 6.47822 1.9585 6.13462L11.3596 0.719624C11.9431 0.376024 12.6078 0.194824 13.2849 0.194824C13.9621 0.194824 14.6268 0.376024 15.2103 0.719624L24.6114 6.13462C25.1944 6.47822 25.6784 6.96722 26.0158 7.55382C26.3533 8.14052 26.5328 8.80462 26.5367 9.48142V12.5273L21.6933 15.3025V10.0379L13.2699 5.14942L4.8465 10.0379V19.7812L13.2699 24.6698L33.0046 13.2381C33.5923 12.9069 34.2554 12.733 34.93 12.733C35.6045 12.733 36.2676 12.9069 36.8553 13.2381L46.2564 18.6756C46.8361 19.0208 47.3167 19.51 47.6514 20.0958C47.9862 20.6816 48.1637 21.344 48.1667 22.0187Z" fill="#7B3FE4"/>
<path d="M64.9186 36.8159V28.3587C65.8361 29.5131 67.502 30.1599 69.4311 30.1599C74.3572 30.1599 77.6852 26.6627 77.6852 21.3305C77.6852 15.9982 74.628 12.501 69.841 12.501C67.6336 12.501 65.9339 13.317 64.9148 14.6407V12.7604H60.1992V36.8046L64.9186 36.8159ZM68.8482 26.0836C66.2986 26.0836 64.6365 24.1809 64.6365 21.3305C64.6365 18.4801 66.2986 16.5434 68.8482 16.5434C71.3263 16.5434 73.026 18.4237 73.026 21.3305C73.026 24.2373 71.3376 26.0836 68.8482 26.0836Z" fill="#0A0B0D"/>
<path d="M88.404 30.1599C93.669 30.1599 97.429 26.4221 97.429 21.3305C97.429 16.2388 93.669 12.501 88.404 12.501C83.1393 12.501 79.3789 16.2351 79.3789 21.3305C79.3789 26.4258 83.1393 30.1599 88.404 30.1599ZM88.404 26.0836C85.8581 26.0836 84.1246 24.147 84.1246 21.3305C84.1246 18.5139 85.8619 16.5434 88.404 16.5434C90.946 16.5434 92.683 18.4763 92.683 21.3305C92.683 24.1846 90.953 26.0836 88.404 26.0836Z" fill="#0A0B0D"/>
<path d="M105.013 29.8893V5.33374H100.294V29.8893H105.013Z" fill="#0A0B0D"/>
<path d="M119.201 12.7717L115.636 23.8086L112.037 12.7717H107.205L113.417 29.7501L110.905 36.8159H115.418L117.843 29.8253L124.059 12.7792L119.201 12.7717Z" fill="#0A0B0D"/>
<path d="M137.316 14.4714C136.364 13.2831 134.684 12.501 132.596 12.501C127.603 12.501 124.583 15.9982 124.583 21.3305C124.583 26.6627 127.591 30.1599 132.664 30.1599C134.668 30.1599 136.466 29.4079 137.35 28.1556V30.4119C137.35 32.0063 136.297 33.1269 134.872 33.1269H126.993V36.8309H135.62C139.489 36.8309 142.069 34.4882 142.069 30.9195V12.7717H137.316V14.4714ZM133.412 26.0836C130.897 26.0836 129.235 24.2034 129.235 21.3305C129.235 18.4575 130.897 16.5434 133.412 16.5434C135.928 16.5434 137.62 18.4237 137.62 21.3305C137.62 24.2373 135.958 26.0836 133.412 26.0836Z" fill="#0A0B0D"/>
<path d="M153.97 30.1599C159.235 30.1599 162.995 26.4221 162.995 21.3305C162.995 16.2388 159.235 12.501 153.97 12.501C148.706 12.501 144.945 16.2351 144.945 21.3305C144.945 26.4258 148.706 30.1599 153.97 30.1599ZM153.97 26.0836C151.421 26.0836 149.691 24.147 149.691 21.3305C149.691 18.5139 151.421 16.5434 153.97 16.5434C156.52 16.5434 158.25 18.4763 158.25 21.3305C158.25 24.1846 156.516 26.0836 153.97 26.0836Z" fill="#0A0B0D"/>
<path d="M170.339 29.8892V20.5144C170.339 18.3071 171.798 16.7127 173.87 16.7127C175.841 16.7127 177.164 18.2168 177.164 20.2775V29.8892H181.917V19.2246C181.917 15.2837 179.406 12.501 175.525 12.501C173.182 12.501 171.283 13.4862 170.332 15.1333V12.7717H165.586V29.8892H170.339Z" fill="#0A0B0D"/>
</svg>
